<?xml version="1.0" encoding="UTF-8"?>
<svg id="Layer_1" xmlns="http://www.w3.org/2000/svg" xmlns:xlink="http://www.w3.org/1999/xlink" version="1.1" viewBox="0 0 101.9 101.9">
  <!-- Generator: Adobe Illustrator 29.3.1, SVG Export Plug-In . SVG Version: 2.1.0 Build 151)  -->
  <defs>
    <style>
      .st0 {
        fill: #00ff4e;
      }

      .st1 {
        fill: #fff;
      }
    </style>
  </defs>
  <rect width="101.9" height="101.9"/>
  <rect class="st0" x="81.5" y="81.5" width="20.4" height="20.4"/>
  <polygon class="st1" points="81.5 0 61.1 0 40.8 0 40.7 0 20.4 0 6.3 0 0 0 0 20.4 6.3 20.4 20.4 20.4 40.7 20.4 40.8 20.4 61.1 20.4 81.5 20.4 81.5 20.4 81.5 40.7 81.5 40.7 81.5 40.7 61.1 40.7 40.8 40.7 40.7 40.7 20.4 40.7 0 40.7 0 46.6 0 61.1 0 81.4 0 101.8 20.4 101.8 20.4 81.4 20.4 61.1 40.7 61.1 40.8 61.1 61.1 61.1 61.1 81.4 81.5 81.4 81.5 61.1 81.5 61.1 98.4 61.1 101.9 61.1 101.9 40.7 101.9 20.4 101.9 8.3 101.9 0 81.5 0"/>
</svg>