<svg version="1.1" id="logo" xmlns="http://www.w3.org/2000/svg" x="0px" y="0px" viewBox="0 0 207 103" style="enable-background:new 0 0 207 103;" xmlns:xlink="http://www.w3.org/1999/xlink" xml:space="preserve">
<style type="text/css">
	.st0{fill:url(#SVGID_1_);}
	.st1{fill:url(#SVGID_2_);}
	.st2{fill:url(#SVGID_3_);}
	.st3{fill:url(#SVGID_4_);}
	.st4{fill:url(#SVGID_5_);}
	.st5{fill:url(#SVGID_6_);}
	.st6{fill:url(#SVGID_7_);}
	.st7{fill:url(#SVGID_8_);}
</style>
<g>
	<linearGradient id="SVGID_1_" gradientUnits="userSpaceOnUse" x1="110.8623" y1="55.7906" x2="113.6176" y2="57.6034">
		<stop offset="1.882840e-02" style="stop-color:#42B70E"></stop>
		<stop offset="1" style="stop-color:#9FE744"></stop>
	</linearGradient>
	<path class="st0" d="M111.7,55.6c-0.3,0.1-0.5,0.1-0.8,0.3c-0.2,0.1-0.3,0.3-0.4,0.5c-0.1,0.2-0.1,0.4-0.1,0.6c0,0.2,0,0.4,0.1,0.5
		c0.1,0.2,0.2,0.3,0.3,0.4c0.3,0.2,0.7,0.4,1.1,0.3c0.4,0,0.8-0.1,1.1-0.3c0.4-0.2,0.7-0.5,1-0.9v-1.6h-1.1
		C112.5,55.5,112.1,55.5,111.7,55.6z"></path>
	<linearGradient id="SVGID_2_" gradientUnits="userSpaceOnUse" x1="51.8673" y1="49.2928" x2="56.0217" y2="52.0261">
		<stop offset="1.882840e-02" style="stop-color:#42B70E"></stop>
		<stop offset="1" style="stop-color:#9FE744"></stop>
	</linearGradient>
	<path class="st1" d="M55.5,48.5c-0.3-0.2-0.5-0.3-0.8-0.3c-0.3,0-0.6-0.1-0.9-0.1h-1.2v4.8h1.3c0.4,0,0.8,0,1.2-0.2
		c0.3-0.1,0.6-0.3,0.8-0.5c0.2-0.2,0.4-0.5,0.5-0.8c0.1-0.3,0.2-0.7,0.2-1c0-0.4-0.1-0.8-0.3-1.2C56,48.9,55.8,48.7,55.5,48.5z"></path>
	<linearGradient id="SVGID_3_" gradientUnits="userSpaceOnUse" x1="128.8004" y1="26.6323" x2="133.5767" y2="29.7748">
		<stop offset="1.882840e-02" style="stop-color:#42B70E"></stop>
		<stop offset="1" style="stop-color:#9FE744"></stop>
	</linearGradient>
	<path class="st2" d="M133.1,25.9c-0.2-0.3-0.4-0.5-0.7-0.7c-0.4-0.2-0.8-0.3-1.2-0.2c-0.4,0-0.7,0.1-1.1,0.2
		c-0.3,0.1-0.6,0.4-0.8,0.6c-0.2,0.3-0.4,0.7-0.4,1c-0.1,0.4-0.2,0.9-0.2,1.4c0,0.4,0,0.9,0.1,1.3c0.1,0.4,0.2,0.7,0.4,1
		c0.2,0.3,0.4,0.5,0.7,0.7c0.4,0.2,0.7,0.3,1.1,0.2c0.4,0,0.8-0.1,1.1-0.2c0.3-0.1,0.6-0.4,0.8-0.6c0.2-0.3,0.4-0.7,0.4-1
		c0.1-0.4,0.1-0.9,0.1-1.4h0c0-0.4-0.1-0.9-0.1-1.3C133.4,26.5,133.3,26.2,133.1,25.9z"></path>
	<linearGradient id="SVGID_4_" gradientUnits="userSpaceOnUse" x1="52.1597" y1="24.0183" x2="59.4094" y2="28.7881">
		<stop offset="1.882840e-02" style="stop-color:#42B70E"></stop>
		<stop offset="1" style="stop-color:#9FE744"></stop>
	</linearGradient>
	<path class="st3" d="M58.7,22.8c-0.3-0.4-0.7-0.7-1.1-1c-0.6-0.3-1.2-0.4-1.8-0.4c-0.6,0-1.2,0.1-1.8,0.4c-0.5,0.2-0.9,0.6-1.2,1
		c-0.3,0.5-0.5,1-0.6,1.5c-0.1,0.6-0.2,1.3-0.2,1.9c0,0.7,0.1,1.4,0.2,2.1c0.1,0.6,0.3,1.1,0.6,1.6c0.3,0.4,0.7,0.7,1.1,1
		c0.6,0.2,1.2,0.4,1.8,0.3c0.6,0,1.2-0.1,1.8-0.4c0.5-0.3,0.9-0.6,1.2-1.1c0.3-0.5,0.5-1,0.6-1.6c0.1-0.6,0.2-1.3,0.2-1.9
		c0-0.7-0.1-1.3-0.2-2C59.2,23.8,59,23.3,58.7,22.8z"></path>
	<linearGradient id="SVGID_5_" gradientUnits="userSpaceOnUse" x1="103.1764" y1="25.3454" x2="106.5074" y2="27.537">
		<stop offset="1.882840e-02" style="stop-color:#42B70E"></stop>
		<stop offset="1" style="stop-color:#9FE744"></stop>
	</linearGradient>
	<path class="st4" d="M106.3,25.3c-0.2-0.2-0.4-0.4-0.7-0.5c-0.3-0.1-0.6-0.2-0.9-0.1c-0.3,0-0.6,0.1-0.9,0.2
		c-0.3,0.1-0.5,0.3-0.7,0.5c-0.2,0.2-0.3,0.5-0.4,0.8c-0.1,0.3-0.1,0.6-0.2,1l4.2,0C106.8,26.5,106.7,25.9,106.3,25.3z"></path>
	<linearGradient id="SVGID_6_" gradientUnits="userSpaceOnUse" x1="81.0792" y1="53.2892" x2="85.43" y2="56.1518">
		<stop offset="1.882840e-02" style="stop-color:#42B70E"></stop>
		<stop offset="1" style="stop-color:#9FE744"></stop>
	</linearGradient>
	<path class="st5" d="M85,52.7c-0.1-0.3-0.3-0.5-0.6-0.7c-0.3-0.2-0.6-0.3-0.9-0.3c-0.2,0-0.4,0-0.5,0.1c-0.2,0.1-0.4,0.2-0.5,0.3
		c-0.2,0.1-0.4,0.3-0.6,0.5c-0.2,0.2-0.4,0.5-0.6,0.7v3.2c0.3,0.4,0.7,0.8,1.1,1.1c0.3,0.3,0.7,0.4,1.1,0.4c0.3,0,0.7-0.1,0.9-0.3
		c0.3-0.2,0.5-0.4,0.6-0.7c0.2-0.3,0.3-0.6,0.4-1c0.1-0.4,0.1-0.8,0.1-1.1c0-0.4,0-0.8-0.1-1.2C85.2,53.3,85.1,53,85,52.7z"></path>
	<linearGradient id="SVGID_7_" gradientUnits="userSpaceOnUse" x1="32.7269" y1="-25.2512" x2="182.5796" y2="73.3419">
		<stop offset="1.882840e-02" style="stop-color:#42B70E"></stop>
		<stop offset="1" style="stop-color:#9FE744"></stop>
	</linearGradient>
	<path class="st6" d="M193.2-31.8C165.3-74.1,102-77.4,58.4-45.3C14.9-13.2-12.7,39.8,6.5,72.2c18.7,31.5,98.7,40.2,148,18
		C203.8,68,221,10.5,193.2-31.8z M82.5,19.5c0.1-0.2,0.2-0.4,0.3-0.5c0.4-0.3,0.8-0.4,1.3-0.3c0.4-0.1,0.9,0.1,1.3,0.3
		c0.1,0.2,0.2,0.3,0.3,0.5c0.1,0.2,0.1,0.4,0,0.6c0,0.2,0,0.4-0.1,0.6c-0.1,0.2-0.2,0.4-0.3,0.5c-0.4,0.2-0.8,0.4-1.2,0.3
		c-0.4,0.1-0.9-0.1-1.3-0.3c-0.1-0.1-0.2-0.3-0.3-0.5s-0.1-0.4-0.1-0.6C82.4,19.9,82.4,19.7,82.5,19.5z M85.4,23.4V33
		c0,0.1,0,0.1-0.1,0.2c-0.1,0.1-0.1,0.1-0.2,0.1c-0.1,0-0.3,0.1-0.4,0.1c-0.2,0-0.5,0-0.7,0c-0.2,0-0.4,0-0.7,0
		c-0.1,0-0.3,0-0.4-0.1c-0.1,0-0.2-0.1-0.2-0.1c0-0.1-0.1-0.1-0.1-0.2v-9.6c0-0.1,0-0.1,0.1-0.2c0.1-0.1,0.1-0.1,0.2-0.1
		c0.1,0,0.3-0.1,0.4-0.1c0.2,0,0.4,0,0.7,0c0.2,0,0.5,0,0.7,0c0.1,0,0.3,0,0.4,0.1c0.1,0,0.2,0.1,0.2,0.1
		C85.4,23.3,85.4,23.4,85.4,23.4z M59.1,52.3c-0.2,0.6-0.6,1.1-1.1,1.5c-0.5,0.4-1.1,0.8-1.8,1c-0.8,0.2-1.6,0.3-2.5,0.3h-1.2v4.5
		c0,0.1,0,0.1-0.1,0.2c-0.1,0.1-0.1,0.1-0.2,0.1L51.9,60c-0.2,0-0.4,0-0.7,0c-0.3,0-0.5,0-0.7,0L50,59.9c-0.1,0-0.2-0.1-0.2-0.1
		c0-0.1-0.1-0.1-0.1-0.2V47c0-0.1,0-0.3,0.1-0.4c0-0.1,0.1-0.3,0.2-0.4c0.2-0.2,0.5-0.3,0.7-0.2h3.4c0.3,0,0.7,0,0.9,0
		c0.4,0,0.7,0.1,1.1,0.2c0.5,0.1,0.9,0.2,1.3,0.5c0.4,0.2,0.8,0.5,1.1,0.8c0.3,0.3,0.6,0.8,0.7,1.2c0.2,0.5,0.3,1,0.3,1.6
		C59.5,51,59.4,51.7,59.1,52.3z M58.7,33.1c-1,0.4-2,0.5-3,0.5c-1,0-1.9-0.1-2.8-0.4c-0.8-0.3-1.5-0.7-2.1-1.3
		c-0.6-0.6-1-1.4-1.3-2.2c-0.3-1-0.4-2.1-0.4-3.2c0-1,0.1-2.1,0.4-3.1c0.3-0.9,0.7-1.6,1.3-2.3c0.6-0.6,1.3-1.2,2.2-1.5
		c1-0.4,2-0.5,3-0.5c1,0,1.9,0.1,2.8,0.4c0.8,0.3,1.5,0.7,2.1,1.3c0.6,0.6,1,1.4,1.3,2.2c0.3,1,0.4,2.1,0.4,3.1
		c0,1.1-0.1,2.1-0.4,3.1c-0.3,0.9-0.7,1.7-1.3,2.3C60.2,32.3,59.5,32.8,58.7,33.1z M64.4,59.6C64.4,59.7,64.4,59.7,64.4,59.6
		c0,0.1,0,0.2-0.1,0.2c-0.1,0.1-0.1,0.1-0.2,0.1C64,60,63.8,60,63.7,60c-0.2,0-0.5,0-0.7,0c-0.2,0-0.4,0-0.7,0c-0.1,0-0.3,0-0.4-0.1
		c-0.1,0-0.2-0.1-0.2-0.1c0,0,0-0.1-0.1-0.1c0,0,0-0.1,0-0.1V50c0,0,0-0.1,0-0.1c0,0,0-0.1,0.1-0.1c0.1-0.1,0.1-0.1,0.2-0.1
		c0.1,0,0.3-0.1,0.4-0.1c0.2,0,0.4,0,0.7,0c0.2,0,0.5,0,0.7,0c0.1,0,0.3,0.1,0.4,0.1c0.1,0,0.2,0.1,0.2,0.1c0,0,0,0.1,0.1,0.1
		c0,0,0,0.1,0,0.1V59.6z M64.5,47.3c-0.1,0.2-0.2,0.4-0.3,0.5c-0.4,0.3-0.8,0.4-1.3,0.3c-0.4,0.1-0.9,0-1.3-0.3
		c-0.1-0.2-0.2-0.3-0.3-0.5s-0.1-0.4,0-0.6c0-0.4,0.1-0.8,0.3-1.1c0.4-0.3,0.8-0.4,1.3-0.3c0.4,0,0.9,0.1,1.3,0.3
		c0.2,0.3,0.4,0.7,0.3,1C64.6,46.9,64.6,47.1,64.5,47.3z M70,59.6C70,59.7,70,59.7,70,59.6c0,0.1,0,0.2-0.1,0.2
		c-0.1,0.1-0.1,0.1-0.2,0.1c-0.1,0-0.3,0.1-0.4,0.1c-0.2,0-0.5,0-0.7,0c-0.2,0-0.4,0-0.7,0c-0.1,0-0.3,0-0.4-0.1
		c-0.1,0-0.2-0.1-0.2-0.1c0,0,0-0.1-0.1-0.1c0,0,0-0.1,0-0.1V45.4c0-0.1,0-0.1,0.1-0.2c0.1-0.1,0.1-0.1,0.2-0.2
		c0.1,0,0.3-0.1,0.4-0.1c0.2,0,0.4,0,0.7,0c0.2,0,0.5,0,0.7,0c0.1,0,0.3,0,0.4,0.1c0.1,0,0.2,0.1,0.2,0.1c0,0.1,0.1,0.1,0.1,0.2
		V59.6z M71.8,33.3c-0.1,0-0.2-0.1-0.2-0.1c0-0.1-0.1-0.1-0.1-0.2v-5.5c0-0.4,0-0.7-0.1-1.1c-0.1-0.2-0.2-0.5-0.3-0.7
		c-0.1-0.2-0.3-0.3-0.5-0.4c-0.2-0.1-0.5-0.2-0.8-0.2c-0.4,0-0.8,0.1-1.1,0.4c-0.4,0.3-0.8,0.7-1.1,1.1V33c0,0.1,0,0.1-0.1,0.2
		c-0.1,0.1-0.1,0.1-0.2,0.1c-0.1,0-0.3,0.1-0.4,0.1c-0.2,0-0.4,0-0.7,0c-0.2,0-0.5,0-0.7,0c-0.1,0-0.3,0-0.4-0.1
		c-0.1,0-0.2-0.1-0.2-0.1c0-0.1-0.1-0.1-0.1-0.2v-9.7c0-0.1,0-0.1,0.1-0.2c0.1-0.1,0.1-0.1,0.2-0.1c0.1,0,0.2-0.1,0.4-0.1
		c0.2,0,0.4,0,0.6,0c0.2,0,0.4,0,0.6,0c0.1,0,0.2,0,0.4,0.1c0.1,0,0.1,0.1,0.2,0.1c0,0.1,0.1,0.1,0.1,0.2v1.1c0.5-0.5,1-1,1.7-1.3
		c0.5-0.3,1.2-0.4,1.8-0.4c0.6,0,1.2,0.1,1.7,0.3c0.4,0.2,0.8,0.5,1.1,0.9c0.3,0.4,0.5,0.8,0.6,1.3c0.1,0.6,0.2,1.2,0.2,1.8V33
		c0,0.1,0,0.1-0.1,0.2c-0.1,0.1-0.1,0.1-0.2,0.1c-0.1,0-0.3,0.1-0.4,0.1c-0.2,0-0.4,0-0.7,0c-0.3,0-0.5,0-0.7,0
		C72.1,33.4,71.9,33.4,71.8,33.3z M75.5,59.6c0,0.1,0,0.1-0.1,0.2c-0.1,0.1-0.1,0.1-0.2,0.1c-0.1,0-0.3,0.1-0.4,0.1
		c-0.2,0-0.5,0-0.7,0c-0.2,0-0.4,0-0.7,0c-0.1,0-0.3,0-0.4-0.1c-0.1,0-0.2-0.1-0.2-0.1c0,0,0-0.1-0.1-0.1c0,0,0-0.1,0-0.1V50
		c0,0,0-0.1,0-0.1c0,0,0-0.1,0.1-0.1c0.1-0.1,0.1-0.1,0.2-0.1c0.1,0,0.3-0.1,0.4-0.1c0.2,0,0.4,0,0.7,0c0.2,0,0.5,0,0.7,0
		c0.1,0,0.3,0.1,0.4,0.1c0.1,0,0.2,0.1,0.3,0.1c0,0.1,0.1,0.1,0.1,0.2L75.5,59.6z M75.7,47.3c-0.1,0.2-0.2,0.4-0.3,0.5
		c-0.4,0.3-0.8,0.4-1.3,0.3c-0.4,0.1-0.9,0-1.3-0.3c-0.1-0.2-0.2-0.3-0.3-0.5c-0.1-0.2-0.1-0.4-0.1-0.6c0-0.2,0-0.4,0.1-0.6
		c0.1-0.2,0.2-0.4,0.3-0.5c0.4-0.3,0.8-0.4,1.3-0.3c0.4-0.1,0.9,0.1,1.3,0.3c0.2,0.3,0.4,0.7,0.3,1C75.8,46.9,75.7,47.1,75.7,47.3z
		 M77.3,33.3c-0.1,0-0.2-0.1-0.2-0.1c0-0.1-0.1-0.1-0.1-0.2V18.8c0-0.1,0-0.1,0.1-0.2c0.1-0.1,0.1-0.1,0.2-0.1
		c0.1,0,0.3-0.1,0.4-0.1c0.2,0,0.4,0,0.7,0c0.2,0,0.5,0,0.7,0c0.1,0,0.3,0.1,0.4,0.1c0.1,0,0.2,0.1,0.2,0.1c0,0.1,0.1,0.1,0.1,0.2
		V33c0,0.1,0,0.1-0.1,0.2c-0.1,0.1-0.1,0.1-0.2,0.1c-0.1,0-0.3,0.1-0.4,0.1c-0.2,0-0.5,0-0.7,0c-0.2,0-0.4,0-0.7,0
		C77.6,33.4,77.5,33.4,77.3,33.3z M88,57c-0.2,0.6-0.4,1.2-0.8,1.8c-0.4,0.5-0.8,0.9-1.4,1.1c-0.6,0.3-1.2,0.4-1.9,0.4
		c-0.3,0-0.5,0-0.8-0.1c-0.2-0.1-0.5-0.1-0.7-0.2c-0.2-0.1-0.5-0.3-0.7-0.4c-0.2-0.2-0.5-0.4-0.7-0.6v4.5c0,0.1,0,0.1-0.1,0.2
		c-0.1,0.1-0.1,0.1-0.2,0.1c-0.1,0-0.3,0.1-0.4,0.1c-0.4,0-0.9,0-1.3,0c-0.1,0-0.3-0.1-0.4-0.1c-0.1,0-0.2-0.1-0.2-0.1
		c0-0.1-0.1-0.1-0.1-0.2V50c0-0.1,0-0.1,0.1-0.2c0.1-0.1,0.1-0.1,0.2-0.1c0.1,0,0.2-0.1,0.4-0.1c0.2,0,0.4,0,0.6,0
		c0.2,0,0.4,0,0.6,0c0.1,0,0.2,0,0.4,0.1c0.1,0,0.1,0.1,0.2,0.1c0,0.1,0.1,0.1,0.1,0.2v1.1c0.3-0.3,0.5-0.5,0.8-0.8
		c0.3-0.2,0.5-0.4,0.9-0.6c0.3-0.1,0.6-0.3,0.9-0.3c0.3-0.1,0.6-0.1,0.9-0.1c0.7,0,1.3,0.1,1.9,0.4c0.5,0.3,0.9,0.7,1.2,1.1
		c0.3,0.5,0.6,1.1,0.7,1.7c0.2,0.7,0.2,1.4,0.2,2C88.3,55.4,88.2,56.2,88,57z M93.3,59.6C93.3,59.7,93.3,59.7,93.3,59.6
		c0,0.1,0,0.2-0.1,0.2c-0.1,0.1-0.1,0.1-0.2,0.1c-0.1,0-0.3,0.1-0.4,0.1c-0.2,0-0.4,0-0.7,0c-0.2,0-0.5,0-0.7,0
		c-0.1,0-0.3,0-0.4-0.1c-0.1,0-0.2-0.1-0.2-0.1c0-0.1-0.1-0.1-0.1-0.2V50c0-0.1,0-0.1,0.1-0.2c0.1-0.1,0.1-0.1,0.2-0.1
		c0.1,0,0.3-0.1,0.4-0.1c0.2,0,0.5,0,0.7,0c0.2,0,0.4,0,0.7,0c0.1,0,0.3,0.1,0.4,0.1c0.1,0,0.2,0.1,0.2,0.1c0,0,0,0.1,0.1,0.1
		c0,0,0,0.1,0,0.1V59.6z M93.4,47.3c-0.1,0.2-0.2,0.4-0.3,0.5c-0.4,0.2-0.8,0.3-1.2,0.3c-0.4,0-0.9-0.1-1.3-0.3
		c-0.1-0.2-0.2-0.3-0.3-0.5s-0.1-0.4,0-0.6c0-0.2,0-0.4,0-0.6c0.1-0.2,0.2-0.4,0.3-0.6c0.4-0.2,0.8-0.3,1.3-0.3
		c0.4,0,0.9,0.1,1.3,0.3c0.1,0.2,0.2,0.3,0.3,0.5c0.1,0.2,0.1,0.4,0,0.6C93.5,46.9,93.5,47.1,93.4,47.3z M95.1,33.3
		c-0.1,0-0.2-0.1-0.2-0.1c0-0.1-0.1-0.1-0.1-0.2v-5.5c0-0.4,0-0.7-0.1-1.1c-0.1-0.2-0.2-0.5-0.3-0.7c-0.1-0.2-0.3-0.3-0.5-0.4
		c-0.2-0.1-0.5-0.2-0.7-0.2c-0.4,0-0.8,0.1-1.1,0.4c-0.4,0.3-0.8,0.7-1.1,1.1V33c0,0.1,0,0.1-0.1,0.2c-0.1,0.1-0.1,0.1-0.2,0.1
		c-0.1,0-0.3,0.1-0.4,0.1c-0.4,0-0.9,0-1.3,0c-0.1,0-0.3,0-0.4-0.1c-0.1,0-0.2-0.1-0.2-0.1c0-0.1-0.1-0.1-0.1-0.2v-9.7
		c0-0.1,0-0.1,0-0.2c0.1-0.1,0.1-0.1,0.2-0.1c0.1,0,0.2-0.1,0.4-0.1c0.2,0,0.4,0,0.6,0c0.2,0,0.4,0,0.6,0c0.1,0,0.2,0,0.4,0.1
		c0.1,0,0.1,0.1,0.2,0.1c0,0.1,0.1,0.1,0.1,0.2v1.1c0.5-0.5,1-1,1.7-1.3c0.5-0.3,1.2-0.4,1.8-0.4c0.6,0,1.2,0.1,1.7,0.3
		c0.4,0.2,0.8,0.5,1.1,0.9c0.3,0.4,0.5,0.8,0.6,1.3c0.1,0.6,0.2,1.2,0.2,1.8v6c0,0.1,0,0.1-0.1,0.2c-0.1,0.1-0.1,0.1-0.2,0.1
		c-0.1,0-0.3,0.1-0.4,0.1c-0.2,0-0.4,0-0.7,0c-0.2,0-0.5,0-0.7,0C95.4,33.4,95.3,33.4,95.1,33.3z M105.5,59.6c0,0.1,0,0.1-0.1,0.2
		c-0.1,0.1-0.1,0.1-0.2,0.1c-0.1,0-0.3,0.1-0.4,0.1c-0.2,0-0.4,0-0.7,0c-0.2,0-0.5,0-0.7,0c-0.1,0-0.3,0-0.4-0.1
		c-0.1,0-0.2-0.1-0.2-0.1c0,0,0-0.1-0.1-0.1c0,0,0-0.1,0-0.1v-5.5c0-0.4,0-0.7-0.1-1.1c-0.1-0.2-0.2-0.5-0.3-0.7
		c-0.1-0.2-0.3-0.3-0.5-0.4c-0.2-0.1-0.5-0.2-0.7-0.2c-0.4,0-0.8,0.1-1.1,0.4c-0.4,0.3-0.8,0.7-1.1,1.1v6.4c0,0,0,0.1,0,0.1
		c0,0,0,0.1-0.1,0.1c-0.1,0.1-0.1,0.1-0.2,0.1c-0.1,0-0.3,0.1-0.4,0.1c-0.2,0-0.4,0-0.7,0c-0.2,0-0.5,0-0.7,0c-0.1,0-0.3,0-0.4-0.1
		c-0.1,0-0.2-0.1-0.2-0.1c0,0,0-0.1-0.1-0.1c0,0,0-0.1,0-0.1V50c0-0.1,0-0.1,0.1-0.2c0.1-0.1,0.1-0.1,0.2-0.1c0.1,0,0.2-0.1,0.4-0.1
		c0.2,0,0.4,0,0.6,0c0.2,0,0.4,0,0.6,0c0.1,0,0.2,0,0.4,0.1c0.1,0,0.1,0.1,0.2,0.1c0,0.1,0.1,0.1,0.1,0.2v1.1c0.5-0.5,1-1,1.7-1.3
		c0.5-0.3,1.1-0.4,1.7-0.4c0.6,0,1.2,0.1,1.7,0.3c0.4,0.2,0.8,0.5,1.1,0.9c0.3,0.4,0.5,0.8,0.6,1.3c0.1,0.6,0.2,1.2,0.2,1.7V59.6z
		 M106.5,33.5c-0.5,0.1-0.9,0.1-1.4,0.1c-0.8,0-1.6-0.1-2.3-0.3c-0.6-0.2-1.2-0.5-1.7-1c-0.4-0.5-0.8-1-0.9-1.7
		c-0.2-0.8-0.3-1.6-0.3-2.4c0-0.8,0-1.6,0.3-2.3c0.2-0.6,0.5-1.2,0.9-1.8c0.5-0.5,1-0.9,1.7-1.1c0.7-0.3,1.4-0.4,2.1-0.3
		c0.7,0,1.4,0.1,2.1,0.3c0.5,0.2,1,0.5,1.4,1c0.4,0.4,0.7,1,0.8,1.5c0.2,0.6,0.3,1.3,0.3,1.9v0.4c0,0.3-0.1,0.5-0.2,0.7
		c-0.1,0.1-0.2,0.1-0.3,0.2c-0.1,0-0.2,0.1-0.3,0.1h-6c0,0.4,0,0.8,0.2,1.1c0.1,0.3,0.3,0.6,0.5,0.9c0.2,0.2,0.5,0.4,0.8,0.5
		c0.4,0.1,0.8,0.2,1.2,0.2c0.4,0,0.9,0,1.3-0.1c0.3-0.1,0.6-0.1,0.9-0.2c0.3-0.1,0.5-0.2,0.7-0.2c0.1-0.1,0.3-0.1,0.4-0.1
		c0.1,0,0.1,0,0.2,0c0,0,0,0,0.1,0.1c0,0,0,0,0,0.1c0,0.1,0.1,0.2,0.1,0.3c0,0.1,0,0.3,0,0.4c0,0.2,0,0.3,0,0.4c0,0.1,0,0.2,0,0.3
		c0,0.1,0,0.1-0.1,0.2c0,0.1-0.1,0.1-0.1,0.2c-0.1,0.1-0.3,0.2-0.4,0.2c-0.3,0.1-0.5,0.2-0.8,0.2C107.2,33.4,106.8,33.5,106.5,33.5z
		 M116.6,59.7c0,0,0,0.1,0,0.1c0,0,0,0.1-0.1,0.1c-0.1,0.1-0.2,0.1-0.4,0.1c-0.2,0-0.5,0-0.7,0c-0.2,0-0.5,0-0.7,0
		c-0.1,0-0.2-0.1-0.3-0.1c0,0-0.1-0.1-0.1-0.1c0,0,0-0.1,0-0.1v-0.8c-0.4,0.4-0.9,0.7-1.4,1c-0.5,0.2-1.1,0.4-1.7,0.4
		c-0.5,0-1-0.1-1.4-0.2c-0.4-0.1-0.8-0.3-1.2-0.5c-0.3-0.3-0.6-0.6-0.7-1c-0.2-0.4-0.3-0.9-0.3-1.4c0-0.5,0.1-1,0.3-1.5
		c0.2-0.5,0.6-0.8,1-1.1c0.5-0.3,1.1-0.5,1.7-0.6c0.8-0.1,1.5-0.2,2.3-0.2h0.9v-0.6c0-0.3,0-0.5-0.1-0.8c-0.1-0.2-0.2-0.4-0.3-0.6
		c-0.2-0.2-0.4-0.3-0.6-0.3c-0.3-0.1-0.6-0.1-0.9-0.1c-0.4,0-0.8,0-1.2,0.2c-0.3,0.1-0.6,0.2-0.9,0.3c-0.2,0.1-0.5,0.2-0.7,0.3
		c-0.1,0.1-0.3,0.1-0.5,0.2c-0.1,0-0.2,0-0.2-0.1c-0.1-0.1-0.1-0.1-0.2-0.2c0-0.1-0.1-0.2-0.1-0.3c0-0.2,0-0.3,0-0.5
		c0-0.2,0-0.4,0.1-0.5c0-0.1,0.1-0.3,0.2-0.3c0.2-0.1,0.3-0.3,0.5-0.4c0.3-0.1,0.6-0.3,0.9-0.4c0.4-0.1,0.8-0.2,1.1-0.3
		c0.4-0.1,0.8-0.1,1.3-0.1c0.7,0,1.3,0.1,2,0.2c0.5,0.1,1,0.4,1.4,0.7c0.4,0.3,0.6,0.7,0.8,1.2c0.2,0.6,0.2,1.1,0.2,1.7L116.6,59.7z
		 M117.3,33.2c-0.1-0.1-0.2-0.2-0.2-0.3c0-0.1-0.1-0.2,0-0.4V19.8c0-0.1,0-0.1,0.1-0.2c0.1-0.1,0.2-0.1,0.2-0.1
		c0.1,0,0.3-0.1,0.4-0.1c0.2,0,0.5,0,0.7,0c0.2,0,0.5,0,0.7,0c0.2,0,0.3,0,0.4,0.1c0.1,0,0.2,0.1,0.2,0.1c0,0.1,0.1,0.1,0.1,0.2V31
		h4.5c0.1,0,0.1,0,0.2,0.1c0.1,0,0.1,0.1,0.1,0.2c0,0.1,0.1,0.2,0.1,0.4c0,0.2,0,0.4,0,0.6c0,0.2,0,0.4,0,0.5c0,0.1,0,0.2-0.1,0.4
		c0,0.1-0.1,0.2-0.1,0.2c-0.1,0-0.1,0.1-0.2,0.1h-6.6C117.7,33.4,117.5,33.3,117.3,33.2z M126.1,58.4c-0.2,0.4-0.5,0.8-0.9,1
		c-0.4,0.3-0.9,0.5-1.4,0.6c-0.6,0.1-1.1,0.2-1.7,0.2c-0.4,0-0.7,0-1.1-0.1c-0.3,0-0.6-0.1-0.9-0.2c-0.2-0.1-0.4-0.2-0.7-0.2
		c-0.1-0.1-0.3-0.2-0.4-0.2c-0.1-0.1-0.2-0.2-0.2-0.4c0-0.2,0-0.5,0-0.8c0-0.2,0-0.3,0-0.5c0-0.1,0-0.2,0.1-0.3
		c0-0.1,0.1-0.1,0.1-0.2c0.1,0,0.1,0,0.2,0c0.1,0,0.3,0.1,0.4,0.1c0.2,0.1,0.4,0.2,0.6,0.3c0.3,0.1,0.5,0.2,0.8,0.3
		c0.3,0.1,0.7,0.1,1.1,0.1c0.2,0,0.5,0,0.7-0.1c0.2,0,0.3-0.1,0.5-0.2c0.1-0.1,0.3-0.2,0.3-0.4c0.1-0.2,0.1-0.3,0.1-0.5
		c0-0.2-0.1-0.4-0.2-0.6c-0.2-0.2-0.3-0.3-0.5-0.4c-0.2-0.1-0.5-0.2-0.8-0.3c-0.3-0.1-0.6-0.2-0.9-0.3c-0.3-0.1-0.6-0.3-0.9-0.4
		c-0.3-0.2-0.5-0.4-0.8-0.6c-0.2-0.2-0.4-0.5-0.5-0.8c-0.1-0.4-0.2-0.8-0.2-1.2c0-0.4,0.1-0.9,0.3-1.3c0.2-0.4,0.5-0.7,0.8-1
		c0.4-0.3,0.8-0.5,1.3-0.6c0.5-0.2,1.1-0.2,1.7-0.2c0.3,0,0.6,0,0.9,0.1c0.3,0,0.5,0.1,0.8,0.2c0.2,0,0.4,0.1,0.6,0.2
		c0.1,0,0.2,0.1,0.4,0.2c0.1,0,0.1,0.1,0.2,0.2c0,0.1,0.1,0.1,0.1,0.2c0,0.1,0,0.2,0,0.3c0,0.1,0,0.2,0,0.4s0,0.4,0,0.5
		c0,0.1,0,0.2-0.1,0.3c0,0,0,0.1,0,0.1c0,0,0,0-0.1,0.1c0,0-0.1,0-0.2,0c-0.1,0-0.2-0.1-0.3-0.1c-0.2-0.1-0.3-0.2-0.5-0.2
		c-0.2-0.1-0.5-0.2-0.7-0.2c-0.3-0.1-0.6-0.1-0.9-0.1c-0.2,0-0.4,0-0.7,0.1c-0.2,0-0.3,0.1-0.5,0.2c-0.1,0.1-0.2,0.2-0.3,0.3
		c-0.1,0.1-0.1,0.3-0.1,0.4c0,0.1,0,0.2,0.1,0.3c0,0.1,0.1,0.2,0.2,0.3c0.2,0.2,0.3,0.3,0.5,0.4c0.3,0.1,0.5,0.2,0.8,0.3
		c0.3,0.1,0.6,0.2,0.9,0.3c0.3,0.1,0.6,0.3,0.9,0.4c0.3,0.2,0.6,0.4,0.8,0.6c0.2,0.2,0.4,0.5,0.5,0.8c0.1,0.4,0.2,0.7,0.2,1.1
		C126.4,57.4,126.3,57.9,126.1,58.4z M136.1,30.3c-0.2,0.7-0.6,1.2-1,1.7c-0.5,0.5-1.1,0.9-1.7,1.1c-0.8,0.3-1.6,0.4-2.4,0.4
		c-0.8,0-1.6-0.1-2.3-0.4c-0.6-0.2-1.2-0.6-1.6-1c-0.4-0.5-0.8-1.1-0.9-1.7c-0.2-0.7-0.3-1.5-0.3-2.3c0-0.8,0.1-1.5,0.3-2.3
		c0.2-0.6,0.6-1.2,1-1.7c0.5-0.5,1-0.9,1.7-1.1c0.8-0.3,1.6-0.4,2.4-0.4c0.8,0,1.6,0.1,2.3,0.3c0.6,0.2,1.2,0.6,1.6,1
		c0.4,0.5,0.8,1.1,0.9,1.7c0.2,0.7,0.3,1.5,0.3,2.3C136.5,28.9,136.4,29.6,136.1,30.3z M147.1,33c0,0,0,0.1,0,0.1c0,0,0,0.1-0.1,0.1
		c-0.1,0.1-0.2,0.1-0.4,0.1c-0.2,0-0.5,0-0.7,0c-0.2,0-0.5,0-0.7,0c-0.1,0-0.2-0.1-0.3-0.1c0,0-0.1-0.1-0.1-0.1c0,0,0-0.1,0-0.1
		v-0.8c-0.4,0.4-0.9,0.7-1.4,1c-0.5,0.2-1.1,0.4-1.7,0.4c-0.5,0-1-0.1-1.4-0.2c-0.4-0.1-0.8-0.3-1.1-0.6c-0.3-0.3-0.6-0.6-0.7-1
		c-0.2-0.4-0.3-0.9-0.3-1.4c0-0.5,0.1-1,0.3-1.5c0.2-0.4,0.6-0.8,1-1c0.5-0.3,1.1-0.5,1.7-0.6c0.8-0.1,1.5-0.2,2.3-0.2h0.9v-0.6
		c0-0.3,0-0.5-0.1-0.8c-0.1-0.2-0.2-0.4-0.3-0.6c-0.2-0.2-0.4-0.3-0.6-0.3c-0.3-0.1-0.6-0.1-0.9-0.1c-0.4,0-0.8,0.1-1.2,0.2
		c-0.3,0.1-0.6,0.2-0.9,0.3c-0.3,0.1-0.5,0.2-0.7,0.3c-0.1,0.1-0.3,0.1-0.5,0.2c-0.1,0-0.2,0-0.2-0.1c-0.1-0.1-0.1-0.1-0.2-0.2
		c0-0.1-0.1-0.2-0.1-0.3c0-0.2,0-0.3,0-0.5c0-0.2,0-0.4,0.1-0.5c0-0.1,0.1-0.3,0.2-0.4c0.2-0.1,0.3-0.3,0.5-0.3
		c0.3-0.1,0.6-0.3,0.9-0.4c0.4-0.1,0.8-0.2,1.1-0.3c0.4-0.1,0.8-0.1,1.3-0.1c0.7,0,1.3,0.1,2,0.2c0.5,0.1,1,0.4,1.4,0.7
		c0.4,0.3,0.6,0.7,0.8,1.2c0.2,0.6,0.3,1.1,0.2,1.7L147.1,33z M159.3,33.2c-0.1,0.1-0.1,0.1-0.2,0.1c-0.1,0-0.3,0.1-0.4,0.1
		c-0.2,0-0.4,0-0.7,0c-0.2,0-0.5,0-0.7,0c-0.1,0-0.3,0-0.4-0.1c-0.1,0-0.2-0.1-0.2-0.1c0-0.1-0.1-0.1-0.1-0.2v-5.5
		c0-0.4,0-0.7-0.1-1.1c-0.1-0.2-0.2-0.5-0.3-0.7c-0.1-0.2-0.3-0.3-0.5-0.4c-0.2-0.1-0.5-0.2-0.7-0.2c-0.4,0-0.8,0.1-1.1,0.4
		c-0.4,0.3-0.8,0.7-1.1,1.1V33c0,0.1,0,0.1-0.1,0.2c-0.1,0.1-0.1,0.1-0.2,0.1c-0.1,0-0.3,0.1-0.4,0.1c-0.2,0-0.5,0-0.7,0
		c-0.2,0-0.4,0-0.7,0c-0.1,0-0.3,0-0.4-0.1c-0.1,0-0.2-0.1-0.2-0.1c0-0.1-0.1-0.1-0.1-0.2v-9.7c0-0.1,0-0.1,0.1-0.2
		c0-0.1,0.1-0.1,0.2-0.1c0.1,0,0.2-0.1,0.4-0.1c0.2,0,0.4,0,0.6,0c0.2,0,0.4,0,0.6,0c0.1,0,0.2,0,0.4,0.1c0.1,0,0.1,0.1,0.2,0.1
		c0,0.1,0,0.1,0,0.2v1.1c0.5-0.5,1-1,1.7-1.3c0.5-0.3,1.1-0.4,1.8-0.4c0.6,0,1.2,0.1,1.7,0.3c0.4,0.2,0.8,0.5,1.1,0.9
		c0.3,0.4,0.5,0.8,0.6,1.3c0.1,0.6,0.2,1.2,0.2,1.8l0,6C159.3,33.1,159.3,33.2,159.3,33.2z M168.7,31.7c-0.2,0.4-0.5,0.8-0.9,1
		c-0.4,0.3-0.9,0.5-1.4,0.6c-0.6,0.1-1.1,0.2-1.7,0.2c-0.4,0-0.7,0-1.1-0.1c-0.3,0-0.6-0.1-0.9-0.2c-0.2-0.1-0.5-0.2-0.7-0.3
		c-0.1-0.1-0.3-0.1-0.4-0.2c-0.1-0.1-0.2-0.2-0.2-0.4c0-0.2-0.1-0.5-0.1-0.7c0-0.2,0-0.3,0-0.5c0-0.1,0-0.2,0.1-0.3
		c0-0.1,0-0.1,0.1-0.1c0,0,0.1-0.1,0.2,0c0.1,0,0.3,0.1,0.4,0.1c0.2,0.1,0.4,0.2,0.6,0.3c0.3,0.1,0.5,0.2,0.8,0.3
		c0.3,0.1,0.7,0.1,1.1,0.1c0.2,0,0.5,0,0.7-0.1c0.2,0,0.4-0.1,0.5-0.2c0.1-0.1,0.2-0.2,0.3-0.4c0.1-0.2,0.1-0.3,0.1-0.5
		c0-0.2-0.1-0.4-0.2-0.6c-0.2-0.2-0.3-0.3-0.5-0.4c-0.2-0.1-0.5-0.2-0.8-0.3l-0.9-0.3c-0.3-0.1-0.6-0.3-0.9-0.4
		c-0.3-0.2-0.5-0.4-0.8-0.6c-0.2-0.2-0.4-0.5-0.5-0.8c-0.2-0.4-0.2-0.8-0.2-1.2c0-0.4,0.1-0.9,0.3-1.3c0.2-0.4,0.5-0.7,0.8-1
		c0.4-0.3,0.8-0.5,1.3-0.6c1.1-0.3,2.3-0.3,3.4,0c0.2,0.1,0.4,0.1,0.6,0.2c0.1,0.1,0.2,0.1,0.3,0.2c0.1,0,0.1,0.1,0.2,0.2
		c0,0.1,0.1,0.1,0.1,0.2c0,0.1,0,0.2,0,0.3c0,0.1,0,0.3,0,0.4c0,0.2,0,0.3,0,0.5c0,0.1,0,0.2-0.1,0.3c0,0.1-0.1,0.1-0.1,0.1
		c0,0-0.1,0-0.2,0c-0.1,0-0.2-0.1-0.3-0.1c-0.1-0.1-0.3-0.2-0.5-0.2c-0.2-0.1-0.5-0.2-0.7-0.2c-0.3-0.1-0.6-0.1-0.9-0.1
		c-0.2,0-0.4,0-0.7,0.1c-0.2,0-0.3,0.1-0.5,0.2c-0.1,0.1-0.2,0.2-0.3,0.3c-0.1,0.1-0.1,0.3-0.1,0.4c0,0.2,0.1,0.4,0.2,0.6
		c0.2,0.2,0.3,0.3,0.5,0.4c0.3,0.1,0.5,0.2,0.8,0.3c0.3,0.1,0.6,0.2,0.9,0.3c0.3,0.1,0.6,0.3,0.9,0.4c0.3,0.2,0.6,0.4,0.8,0.6
		c0.2,0.2,0.4,0.5,0.5,0.8c0.2,0.3,0.3,0.7,0.3,1.1C169,30.8,168.9,31.3,168.7,31.7z"></path>
	<linearGradient id="SVGID_8_" gradientUnits="userSpaceOnUse" x1="141.3194" y1="29.1843" x2="144.0792" y2="31.0001">
		<stop offset="1.882840e-02" style="stop-color:#42B70E"></stop>
		<stop offset="1" style="stop-color:#9FE744"></stop>
	</linearGradient>
	<path class="st7" d="M142.2,29c-0.3,0-0.5,0.1-0.8,0.3c-0.2,0.1-0.3,0.3-0.4,0.5c-0.1,0.2-0.1,0.4-0.1,0.6c0,0.2,0,0.4,0.1,0.5
		c0.1,0.2,0.2,0.3,0.3,0.4c0.3,0.3,0.7,0.4,1.1,0.4c0.4,0,0.8-0.1,1.1-0.3c0.4-0.2,0.7-0.5,1-0.9v-1.6h-1.1
		C142.9,28.9,142.5,28.9,142.2,29z"></path>
</g>
</svg>