<svg xmlns="http://www.w3.org/2000/svg" width="92" height="40" viewBox="0 0 92 40"> <defs> <style> .cls-1{fill:#00be5f}.cls-2{fill:#fff} </style> </defs> <g id="Group_227" data-name="Group 227"> <g id="Group_238" data-name="Group 238" transform="translate(1.484 6.889)"> <path id="Path_291" d="M22.548 45.785h-.816a14.1 14.1 0 0 1-9.163-24.037L9.416 18.6a18.536 18.536 0 0 0 13.132 31.63v-4.445z" class="cls-1" data-name="Path 291" transform="translate(-4 -18.6)"/> </g> <g id="Group_239" data-name="Group 239"> <path id="Path_292" d="M33.016 33.222a18.519 18.519 0 1 1 0-26.444c.519-.185 1.076-.333 1.632-.481a20.02 20.02 0 1 0-.037 27.403 18.53 18.53 0 0 1-1.595-.478z" class="cls-2" data-name="Path 292"/> </g> <g id="Group_240" data-name="Group 240" transform="translate(5.935 5.926)"> <path id="Path_293" d="M37.887 39.963a12.5 12.5 0 0 1-7.79 2.7 12.593 12.593 0 1 1 0-25.185 12.5 12.5 0 0 1 7.79 2.7 13.544 13.544 0 0 1 1.113-1A13.908 13.908 0 0 0 30.1 16 14.074 14.074 0 1 0 39 41a9.943 9.943 0 0 1-1.113-1.037z" class="cls-2" data-name="Path 293" transform="translate(-16 -16)"/> </g> <g id="Group_241" data-name="Group 241" transform="translate(13.355 13.333)"> <path id="Path_294" d="M46.758 45.852a5.185 5.185 0 1 1 0-6.37c.148-.556.3-1.111.482-1.667a6.667 6.667 0 1 0 0 9.7 17.537 17.537 0 0 1-.482-1.663z" class="cls-2" data-name="Path 294" transform="translate(-36 -36)"/> </g> <g id="Group_242" data-name="Group 242" transform="translate(59.355 13.704)"> <path id="Path_295" d="M160 37h1.484v12.593H160z" class="cls-2" data-name="Path 295" transform="translate(-160 -37)"/> </g> <g id="Group_243" data-name="Group 243" transform="translate(26.71 13.333)"> <path id="Path_296" d="M78.677 37.481a5.185 5.185 0 1 1-5.194 5.185 5.2 5.2 0 0 1 5.194-5.185m0-1.481a6.667 6.667 0 1 0 6.677 6.667A6.692 6.692 0 0 0 78.677 36z" class="cls-2" data-name="Path 296" transform="translate(-72 -36)"/> </g> <g id="Group_244" data-name="Group 244" transform="translate(78.645 13.333)"> <path id="Path_297" d="M218.677 37.481a5.185 5.185 0 1 1-5.194 5.185 5.2 5.2 0 0 1 5.194-5.185m0-1.481a6.667 6.667 0 1 0 6.677 6.667A6.692 6.692 0 0 0 218.677 36z" class="cls-2" data-name="Path 297" transform="translate(-212 -36)"/> </g> <g id="Group_245" data-name="Group 245" transform="translate(64.548 13.704)"> <path id="Path_298" d="M183.645 37v10.222L175.484 37H174v12.593h1.484V39.37l8.161 10.222h1.484V37z" class="cls-2" data-name="Path 298" transform="translate(-174 -37)"/> </g> <g id="Group_246" data-name="Group 246" transform="translate(43.032 13.704)"> <path id="Path_299" d="M127.129 37l-4.823 7.259L117.484 37H116v12.593h1.484V39.37l4.823 7.259 4.823-7.259v10.223h1.484V37z" class="cls-2" data-name="Path 299" transform="translate(-116 -37)"/> </g> </g> </svg>