<svg xmlns="http://www.w3.org/2000/svg" width="377" height="46" viewBox="0 0 377 46" fill="none">
<path d="M4.00566 39.2289C-2.09279 23.3982 -1.95057 4.72993 9.50678 1.05087C15.6792 -0.933657 24.9008 -1.75249 38.463 20.4299C39.1969 21.8572 39.1457 23.0115 38.3606 23.546C37.1148 24.399 35.7551 23.5176 34.7824 22.1074C21.1405 2.25069 15.5939 5.37817 14.3537 5.87857C8.39177 8.30095 12.8404 24.9505 17.676 35.1461C19.5761 39.155 18.5634 42.9876 14.6552 44.5286C9.28492 46.6439 5.29703 42.5611 4.01135 39.2232L4.00566 39.2289Z" fill="#FF00AA"/>
<path d="M56.6044 6.00936C62.7028 21.8401 62.5606 40.5083 51.1089 44.1874C44.9365 46.1719 35.7149 46.9908 22.1527 24.8084C21.4188 23.3811 21.47 22.2268 22.2551 21.6923C23.5009 20.8393 24.8606 21.7207 25.8334 23.1309C39.4752 42.9819 45.0219 39.8544 46.262 39.3483C52.2239 36.926 47.7753 20.2764 42.9397 10.0808C41.0397 6.07191 42.0523 2.23932 45.9605 0.698326C51.3308 -1.41699 55.3187 2.6658 56.6044 6.00368V6.00936Z" fill="#FF00AA"/>
<path d="M375.061 12.9239C374.413 11.3829 373.502 10.0978 372.336 9.07423C371.21 8.0052 369.873 7.2148 368.314 6.69734C366.755 6.18557 365.026 5.92969 363.126 5.92969C361.226 5.92969 359.383 6.24812 357.744 6.89068C356.146 7.53323 354.741 8.40893 353.529 9.52345C352.317 10.638 351.322 11.9174 350.548 13.3731C350.275 13.8678 350.053 14.3682 349.848 14.8743C349.695 14.1862 349.507 13.5266 349.251 12.9239C348.642 11.3829 347.76 10.0978 346.594 9.07423C345.468 8.0052 344.108 7.2148 342.51 6.69734C340.951 6.18557 339.244 5.92969 337.384 5.92969C335.393 5.92969 333.578 6.24812 331.934 6.89068C330.29 7.53323 328.862 8.43167 327.656 9.586C326.444 10.7005 325.471 11.9799 324.738 13.4356C324.334 14.2147 324.015 15.0278 323.765 15.858V6.63479H316.568V38.6034H323.765V19.5769C324.083 18.6045 324.584 17.6947 325.255 16.8418C326.336 15.4315 327.719 14.2943 329.408 13.4413C331.138 12.5429 333.038 12.0937 335.114 12.0937C337.839 12.0937 339.83 12.7362 341.082 14.0213C342.379 15.261 343.027 17.1886 343.027 19.7987V38.609H350.229V18.3884C350.229 18.2804 350.218 18.1837 350.218 18.0814C350.445 17.6606 350.707 17.2455 351.009 16.8474C352.09 15.4372 353.472 14.3 355.162 13.447C356.891 12.5486 358.791 12.0994 360.867 12.0994C363.592 12.0994 365.578 12.7419 366.835 14.027C368.132 15.2666 368.781 17.1943 368.781 19.8043V38.6147H376.045V18.3941C376.045 16.2959 375.721 14.4762 375.073 12.9353L375.061 12.9239Z" fill="white"/>
<path d="M306.362 6.63477L296.486 30.4378L286.901 6.63477H278.993L293.062 38.6033H299.94L314.207 6.63477H306.362Z" fill="white"/>
<path d="M273.476 28.0726H280.416C280.069 30.2561 279.204 32.2009 277.822 33.9124C276.479 35.5842 274.642 36.9091 272.309 37.8929C269.977 38.8368 267.184 39.3031 263.941 39.3031C260.266 39.3031 256.978 38.6378 254.082 37.3129C251.187 35.9425 248.917 34.0148 247.273 31.5356C245.629 29.0506 244.81 26.0994 244.81 22.6763C244.81 19.2531 245.612 16.3417 247.21 13.8169C248.809 11.2922 251.016 9.34749 253.826 7.97708C256.682 6.60668 259.965 5.92432 263.685 5.92432C267.406 5.92432 270.734 6.60668 273.282 7.97708C275.876 9.302 277.799 11.315 279.056 14.0103C280.308 16.6658 280.831 20.0207 280.615 24.0865H252.143C252.359 25.8833 252.945 27.5096 253.895 28.9653C254.89 30.3755 256.233 31.4901 257.917 32.3032C259.601 33.0709 261.569 33.4575 263.816 33.4575C266.325 33.4575 268.424 32.9628 270.108 31.9791C271.837 30.9954 272.964 29.6875 273.481 28.0612L273.476 28.0726ZM263.492 11.7073C260.551 11.7073 258.133 12.4352 256.227 13.8909C254.321 15.3011 253.093 17.1207 252.529 19.3497H273.351C273.18 16.9558 272.207 15.0907 270.432 13.7658C268.657 12.3954 266.348 11.713 263.492 11.713V11.7073Z" fill="white"/>
<path d="M229.307 12.9239C228.704 11.3829 227.817 10.0978 226.65 9.07423C225.524 8.0052 224.164 7.2148 222.566 6.69734C221.007 6.18557 219.3 5.92969 217.44 5.92969C215.449 5.92969 213.634 6.24812 211.99 6.89068C210.346 7.53323 208.918 8.43167 207.707 9.586C206.495 10.7005 205.522 11.9799 204.788 13.4356C204.384 14.2147 204.066 15.0278 203.815 15.858V6.63479H196.613V38.6034H203.815V19.5769C204.134 18.6045 204.635 17.6947 205.306 16.8418C206.387 15.4315 207.769 14.2943 209.459 13.4413C211.188 12.5429 213.088 12.0937 215.165 12.0937C217.89 12.0937 219.875 12.7362 221.132 14.0213C222.429 15.261 223.078 17.1886 223.078 19.7987V38.609H230.274V18.3884C230.274 16.2902 229.95 14.4706 229.301 12.9296L229.307 12.9239Z" fill="white"/>
<path d="M174.916 39.3085C171.326 39.3085 168.106 38.6659 165.25 37.3808C162.394 36.0957 160.147 34.2135 158.503 31.7343C156.859 29.2493 156.04 26.2356 156.04 22.6816C156.04 19.1277 156.859 16.1765 158.503 13.6972C160.147 11.1725 162.394 9.24482 165.25 7.9199C168.106 6.59499 171.326 5.92969 174.916 5.92969C178.505 5.92969 181.702 6.59499 184.513 7.9199C187.323 9.24482 189.53 11.1725 191.129 13.6972C192.773 16.1821 193.592 19.1732 193.592 22.6816C193.592 26.1901 192.773 29.2493 191.129 31.7343C189.53 34.2192 187.323 36.1014 184.513 37.3808C181.702 38.6659 178.505 39.3085 174.916 39.3085ZM174.916 33.4686C176.992 33.4686 178.892 33.0592 180.622 32.2517C182.351 31.4386 183.711 30.216 184.706 28.5954C185.742 26.9691 186.265 25.0016 186.265 22.6873C186.265 20.373 185.747 18.4055 184.706 16.7792C183.711 15.1529 182.351 13.9133 180.622 13.0547C178.938 12.1562 177.032 11.707 174.916 11.707C172.799 11.707 170.871 12.1335 169.141 12.9921C167.412 13.8507 166.007 15.0904 164.926 16.7167C163.891 18.343 163.367 20.3332 163.367 22.6873C163.367 25.0415 163.885 26.9691 164.926 28.5954C165.961 30.2217 167.349 31.4386 169.079 32.2517C170.854 33.0649 172.799 33.4686 174.916 33.4686Z" fill="white"/>
<path d="M151.455 14.0157C150.198 11.3203 148.275 9.30737 145.681 7.98245C143.132 6.61205 139.929 5.92969 136.084 5.92969C132.238 5.92969 129.081 6.61205 126.225 7.98245C123.415 9.35286 121.207 11.2976 119.609 13.8223C118.01 16.347 117.208 19.2983 117.208 22.6816C117.208 26.065 118.033 29.056 119.671 31.5409C121.315 34.0259 123.585 35.9478 126.481 37.3182C129.376 38.6432 132.665 39.3085 136.34 39.3085C139.582 39.3085 142.37 38.8365 144.708 37.8983C147.04 36.9145 148.878 35.5896 150.22 33.9178C151.603 32.2062 152.468 30.2615 152.815 28.078H145.874C145.356 29.7042 144.23 31.0121 142.501 31.9958C140.817 32.9796 138.718 33.4743 136.209 33.4743C133.962 33.4743 131.993 33.0876 130.309 32.32C128.626 31.5068 127.283 30.3923 126.287 28.9821C125.337 27.5264 124.751 25.9001 124.535 24.1032H153.008C153.224 20.0375 152.706 16.6769 151.449 14.027L151.455 14.0157ZM124.928 19.3437C125.491 17.1204 126.72 15.3008 128.626 13.8849C130.526 12.4292 132.949 11.7013 135.89 11.7013C138.831 11.7013 141.056 12.3837 142.831 13.7541C144.606 15.079 145.578 16.9441 145.749 19.3381H124.928V19.3437Z" fill="white"/>
<path d="M113.385 12.9239C112.782 11.3829 111.895 10.0978 110.729 9.07423C109.602 8.0052 108.243 7.2148 106.644 6.69734C105.085 6.18557 103.379 5.92969 101.518 5.92969C99.5274 5.92969 97.7126 6.24812 96.0685 6.89068C94.4245 7.53323 92.9966 8.43167 91.7848 9.586C90.5731 10.7005 89.6003 11.9799 88.8665 13.4356C88.4625 14.2147 88.144 15.0278 87.8937 15.858V6.63479H80.6973V38.6034H87.8937V19.5769C88.2122 18.6045 88.7129 17.6947 89.3841 16.8418C90.465 15.4315 91.8474 14.2943 93.537 13.4413C95.2664 12.5429 97.1665 12.0937 99.2429 12.0937C101.968 12.0937 103.953 12.7362 105.211 14.0213C106.508 15.261 107.156 17.1886 107.156 19.7987V38.609H114.353V18.3884C114.353 16.2902 114.028 14.4706 113.38 12.9296L113.385 12.9239Z" fill="white"/>
</svg>