<?xml version="1.0" encoding="UTF-8"?>
<svg id="Layer_1" xmlns="http://www.w3.org/2000/svg" version="1.1" viewBox="0 0 1080 1080">
  <!-- Generator: Adobe Illustrator 29.3.1, SVG Export Plug-In . SVG Version: 2.1.0 Build 151)  -->
  <defs>
    <style>
      .st0 {
        fill: #00ff4e;
      }
    </style>
  </defs>
  <path class="st0" d="M896.4,228.5l-65.7-131.2-137.5-8.2-113.6-78-132.4,63.3-146.5-8.7-75.9,115-124.3,59.4-11.4,146.3L8.3,508.9l61.7,123.2-10.7,137.4,121,83,65.7,131.2,137.5,8.2,113.6,78,132.4-63.3,146.5,8.7,75.9-115,124.3-59.4,11.4-146.3,80.8-122.5-61.7-123.2,10.7-137.4-121-83ZM972,455.1l56.9,113.7-74.6,113-10.5,135-114.7,54.8-70,106.1-135.2-8.1-122.2,58.4-104.8-71.9-126.9-7.6-60.6-121.1-111.7-76.6,9.9-126.8-56.9-113.7,74.6-113,10.5-135,114.7-54.8,70-106.1,135.2,8.1,122.2-58.4,104.8,71.9,126.9,7.6,60.6,121.1,111.7,76.6-9.9,126.8Z"/>
  <g>
    <path class="st0" d="M334.9,578.2l-65.4-113.2,38.8-22.4,81.1,77.5,1.7-1-53.8-93.2,23-13.3,65.4,113.2-37.8,21.8-82.1-76.9-1.7,1,53.8,93.2-23,13.3Z"/>
    <path class="st0" d="M450.3,511.6l-65.4-113.2,73.3-42.3,11.5,20-50.3,29,15.3,26.5,40.3-23.3,11.3,19.6-40.3,23.3,15.7,27.1,50.3-29,11.5,20-73.3,42.3Z"/>
    <path class="st0" d="M468,350.4l24.1-13.9,68,85.5,2.5-1.4-33.7-105.3,26.6-15.4,74.3,81.8,2.5-1.4-40-101.6,24.1-13.9,43.7,125.7-34.8,20.1-67.5-75.8,31.9,96.4-34.8,20.1-87-100.7Z"/>
    <path class="st0" d="M302.6,819.3l-18.6,10.8,19,33-23,13.3-65.4-113.2,41.6-24c26.9-15.5,47.9-10.2,63,16,7.6,13.2,10.1,25.3,7.3,36.3-2.8,11-10.7,20.3-23.9,27.9ZM272.6,810.4l18.5-10.7c11.4-6.6,13-17,4.8-31.2s-8.3-11.2-12.9-12.7c-4.5-1.4-9.7-.5-15.6,2.9l-18.5,10.7,23.6,41Z"/>
    <path class="st0" d="M379.1,768.5l21.9,38-23,13.3-65.4-113.2,44-25.4c26.6-15.4,47.1-10.6,61.5,14.2s9.3,28.8,2.2,42.2l41.1,34-25.1,14.5-35.1-30.4-22.1,12.8ZM398.4,724.5c.7-4.9-.5-10-3.6-15.5s-7.1-8.9-11.7-10.5c-4.7-1.6-9.7-.8-15,2.2l-21,12.1,20.8,36,21.3-12.3c5.4-3.1,8.5-7.1,9.3-12Z"/>
    <path class="st0" d="M552.7,702.8c-1.6,13.5-11.1,25.1-28.3,35.1s-32,12.2-44.5,6.9c-12.5-5.3-24.5-18-36-37.9s-16.6-36.9-15.1-50.6c1.4-13.8,10.8-25.6,28-35.6s32.1-12.1,44.8-6.4c12.7,5.6,24.8,18.5,36.3,38.4s16.5,36.7,14.9,50.1ZM489.4,719.8c6.6,3.9,14.5,3.3,23.4-1.9s13.4-11.6,13.4-19.4c0-7.7-4.1-18.4-12-32.1s-15.3-22.7-22.2-27c-6.9-4.3-14.8-3.9-23.7,1.3s-13.2,11.8-12.9,19.9c.3,8.1,4.3,19.1,12.3,32.8s15.2,22.5,21.8,26.5Z"/>
    <path class="st0" d="M628,675.4l-38.1,22-65.4-113.2,38.1-22c9.8-5.6,18.4-9.3,25.9-10.9,7.5-1.6,14.4-1,20.6,1.6,6.2,2.7,11.8,6.9,16.9,12.5,5,5.6,10.5,13.5,16.4,23.7,5.9,10.2,10.2,19,12.8,26.4,2.7,7.4,3.8,14.7,3.5,22-.3,7.2-3,13.9-8.1,20-5.1,6.1-12.6,12-22.6,17.8ZM626.2,616.5c-1.8-3.7-4.6-8.7-8.2-14.9s-6.7-11.2-9.4-14.7c-2.6-3.5-5.7-6.3-9.1-8.5-3.5-2.1-7.2-2.9-11.1-2.1-3.9.7-8.7,2.7-14.2,5.9l-15.2,8.7,42.3,73.3,15.2-8.7c8.3-4.8,13.2-10.4,14.5-16.8,1.2-5.3-.4-12.7-4.8-22.1Z"/>
    <path class="st0" d="M696.2,585.6c7.6,13.2,18.2,15.9,31.6,8.2s16.3-18.2,8.7-31.4l-43.5-75.4,23-13.3,43.3,74.9c8,13.9,10.3,26.1,6.9,36.8-3.4,10.6-12.3,20.1-26.8,28.4-14.4,8.3-27.1,11.3-38,9-10.9-2.4-20.4-10.5-28.4-24.4l-43.3-74.9,23-13.3,43.5,75.4Z"/>
    <path class="st0" d="M875.7,530c-10.3,9.3-20.2,16.7-29.6,22.2s-17.7,8.6-24.7,9.6c-7,.9-13.6-.2-19.8-3.5-6.2-3.2-11.8-8-17-14.1-5.2-6.2-10.8-14.5-16.8-24.9-12.6-21.9-18.3-38.9-17.1-51,1.2-12.2,10.1-23,26.6-32.6s21.5-10.4,35.7-14.6l9.9,18.7c-11.9,4.7-21.6,9.1-28.8,13.3s-11.9,8.2-13.9,11.9c-2,3.7-2.2,8.8-.5,15.1,1.6,6.3,6.2,16,13.8,29.1,7.6,13.1,14.3,21.3,20.3,24.6,6,3.3,13.5,2.3,22.7-3s18.4-11.7,27.9-19.2l11.4,18.5Z"/>
    <path class="st0" d="M831.6,434l-11.7-20.3,83.2-48.1,11.7,20.3-30,17.3,53.6,92.9-23,13.3-53.6-92.9-30.3,17.5Z"/>
  </g>
</svg>