<?xml version="1.0" encoding="utf-8"?>
<!-- Generator: Adobe Illustrator 27.0.0, SVG Export Plug-In . SVG Version: 6.00 Build 0)  -->
<svg version="1.1" id="Layer_1" xmlns="http://www.w3.org/2000/svg" xmlns:xlink="http://www.w3.org/1999/xlink" x="0px" y="0px"
	 viewBox="0 0 194.6 62.8" style="enable-background:new 0 0 194.6 62.8;" xml:space="preserve">
<style type="text/css">
	.st0{fill:#00FF4E;}
	.st1{fill:#FFFFFF;}
</style>
<rect width="194.6" height="62.8"/>
<g>
	<g>
		<rect x="33.9" y="33.9" class="st0" width="8.5" height="8.5"/>
		<polygon class="st1" points="0,0 0,8.5 33.9,8.5 33.9,16.9 0,16.9 0,42.3 8.5,42.3 8.5,25.4 25.4,25.4 25.4,33.9 33.9,33.9 
			33.9,25.4 42.3,25.4 42.3,0 		"/>
		<g>
			<rect x="152.3" class="st1" width="42.3" height="8.5"/>
			<polygon class="st1" points="152.3,16.9 152.3,42.3 194.6,42.3 194.6,33.9 160.8,33.9 160.8,25.4 160.8,25.4 194.6,25.4 
				194.6,16.9 			"/>
		</g>
		<g>
			<polygon class="st1" points="101.5,0 101.5,8.5 135.4,8.5 135.4,16.9 101.5,16.9 101.5,42.3 110,42.3 110,25.4 126.9,25.4 
				126.9,33.9 135.4,33.9 135.4,25.4 143.9,25.4 143.9,0 			"/>
			<rect x="135.4" y="33.9" class="st1" width="8.5" height="8.5"/>
		</g>
		<path class="st1" d="M50.8,0v42.3h8.5V25.4v0h25.4v0v16.9h8.5V0H50.8z M84.6,16.9h-8.5h-8.5h-8.5V8.5h8.5h8.5h0h8.5V16.9z"/>
	</g>
	<g>
		<path class="st1" d="M0,51.8h9.3c0.8,0,1.5,0.3,2,0.8c0.6,0.6,0.8,1.2,0.8,2v5.3c0,0.8-0.3,1.5-0.8,2s-1.2,0.8-2,0.8H0V51.8z
			 M3.2,54.6v5.3h5.1c0.2,0,0.3-0.1,0.5-0.2S9,59.4,9,59.2v-3.9c0-0.2-0.1-0.3-0.2-0.5c-0.1-0.1-0.3-0.2-0.5-0.2L3.2,54.6L3.2,54.6z
			"/>
		<path class="st1" d="M13.5,51.8h3.2v11h-3.2V51.8z"/>
		<path class="st1" d="M20.9,51.8h6.5c0.8,0,1.5,0.3,2,0.8c0.6,0.6,0.8,1.2,0.8,2v1.1H27v-0.4c0-0.2-0.1-0.3-0.2-0.5
			c-0.1-0.1-0.3-0.2-0.5-0.2h-4.4c-0.2,0-0.3,0.1-0.5,0.2c-0.1,0.1-0.2,0.3-0.2,0.5v3.9c0,0.2,0.1,0.3,0.2,0.5
			c0.1,0.1,0.3,0.2,0.5,0.2h4.4c0.2,0,0.3-0.1,0.5-0.2s0.2-0.3,0.2-0.5v-0.6h-4.1v-2.3h7.3v3.6c0,0.8-0.3,1.5-0.8,2s-1.2,0.8-2,0.8
			h-6.5c-0.8,0-1.5-0.3-2-0.8s-0.8-1.2-0.8-2v-5.3c0-0.8,0.3-1.5,0.8-2C19.4,52,20.1,51.8,20.9,51.8z"/>
		<path class="st1" d="M31.5,51.8h3.2v11h-3.2V51.8z"/>
		<path class="st1" d="M35.9,51.8h12.2v2.8h-4.5v8.3h-3.2v-8.3h-4.5L35.9,51.8L35.9,51.8z"/>
		<path class="st1" d="M52.4,51.8h6.4c0.8,0,1.5,0.3,2,0.8c0.6,0.6,0.8,1.2,0.8,2v0.9h-3.2v-0.3c0-0.2-0.1-0.3-0.2-0.5
			c-0.1-0.1-0.3-0.2-0.5-0.2h-4.4c-0.4,0-0.6,0.2-0.6,0.5v0.2c0,0.2,0.3,0.4,0.9,0.5c0.6,0.1,1.4,0.2,2.3,0.2s1.8,0.2,2.7,0.3
			s1.7,0.4,2.3,0.8c0.6,0.4,0.9,0.9,0.9,1.6v1.2c0,0.8-0.3,1.5-0.8,2s-1.2,0.8-2,0.8h-6.6c-0.8,0-1.5-0.3-2-0.8s-0.8-1.2-0.8-2V59
			h3.2v0.3c0,0.2,0.1,0.3,0.2,0.5c0.1,0.1,0.3,0.2,0.5,0.2H58c0.4,0,0.6-0.2,0.6-0.5v-0.2c0-0.2-0.3-0.4-0.9-0.4
			c-0.6-0.1-1.4-0.2-2.3-0.2c-0.9-0.1-1.8-0.2-2.7-0.3c-0.9-0.1-1.7-0.4-2.3-0.8s-0.9-1-0.9-1.7v-1.2c0-0.8,0.3-1.5,0.8-2
			C50.9,52,51.6,51.8,52.4,51.8z"/>
		<path class="st1" d="M70,51.8h9.3c0.8,0,1.5,0.3,2,0.8c0.6,0.6,0.9,1.2,0.9,2v2.2c0,0.8-0.3,1.5-0.9,2c-0.6,0.6-1.2,0.8-2,0.8
			h-6.1v3.1H70V51.8z M73.2,54.6v2.2h5.1c0.2,0,0.3-0.1,0.5-0.2c0.1-0.1,0.2-0.3,0.2-0.5v-0.8c0-0.2-0.1-0.3-0.2-0.5
			c-0.1-0.1-0.3-0.2-0.5-0.2L73.2,54.6L73.2,54.6z"/>
		<path class="st1" d="M83.4,51.8h9.3c0.8,0,1.5,0.3,2,0.8c0.6,0.6,0.9,1.2,0.9,2v2c0,0.7-0.2,1.2-0.6,1.7s-0.9,0.8-1.5,1l2.5,3.3
			h-3.7L90,59.6h-3.4v3.2h-3.2L83.4,51.8L83.4,51.8z M86.6,54.6v2h5.1c0.2,0,0.3-0.1,0.5-0.2c0.1-0.1,0.2-0.3,0.2-0.5v-0.7
			c0-0.2-0.1-0.3-0.2-0.5c-0.1-0.1-0.3-0.2-0.5-0.2L86.6,54.6L86.6,54.6z"/>
		<path class="st1" d="M99.9,51.8h6.4c0.8,0,1.5,0.3,2,0.8c0.6,0.6,0.9,1.2,0.9,2v5.3c0,0.8-0.3,1.5-0.9,2s-1.2,0.8-2,0.8h-6.4
			c-0.8,0-1.5-0.3-2-0.8c-0.6-0.6-0.9-1.2-0.9-2v-5.3c0-0.8,0.3-1.5,0.9-2C98.4,52,99.1,51.8,99.9,51.8z M100.9,54.6
			c-0.2,0-0.4,0.1-0.5,0.2c-0.1,0.1-0.2,0.3-0.2,0.5v3.9c0,0.2,0.1,0.3,0.2,0.5c0.1,0.1,0.3,0.2,0.5,0.2h4.4c0.2,0,0.4-0.1,0.5-0.2
			c0.1-0.1,0.2-0.3,0.2-0.5v-3.9c0-0.2-0.1-0.3-0.2-0.5c-0.1-0.1-0.3-0.2-0.5-0.2C105.3,54.6,100.9,54.6,100.9,54.6z"/>
		<path class="st1" d="M110.5,51.8h9.3c0.8,0,1.5,0.3,2,0.8c0.6,0.6,0.9,1.2,0.9,2v5.3c0,0.8-0.3,1.5-0.9,2s-1.2,0.8-2,0.8h-9.3
			C110.5,62.8,110.5,51.8,110.5,51.8z M113.8,54.6v5.3h5.1c0.2,0,0.4-0.1,0.5-0.2c0.1-0.1,0.2-0.3,0.2-0.5v-3.9
			c0-0.2-0.1-0.3-0.2-0.5c-0.1-0.1-0.3-0.2-0.5-0.2L113.8,54.6L113.8,54.6z"/>
		<path class="st1" d="M124.1,51.8h3.2v7.5c0,0.2,0.1,0.3,0.2,0.5c0.1,0.1,0.3,0.2,0.5,0.2h4.4c0.2,0,0.4-0.1,0.5-0.2
			c0.1-0.1,0.2-0.3,0.2-0.5v-7.5h3.2v8.2c0,0.8-0.3,1.5-0.9,2s-1.2,0.8-2,0.8H127c-0.8,0-1.5-0.3-2-0.8c-0.6-0.6-0.9-1.2-0.9-2
			L124.1,51.8L124.1,51.8z"/>
		<path class="st1" d="M140.5,51.8h6.4c0.8,0,1.5,0.3,2,0.8c0.6,0.6,0.9,1.2,0.9,2v1.2h-3.2v-0.5c0-0.2-0.1-0.3-0.2-0.5
			c-0.1-0.1-0.3-0.2-0.5-0.2h-4.4c-0.2,0-0.4,0.1-0.5,0.2c-0.1,0.1-0.2,0.3-0.2,0.5v3.9c0,0.2,0.1,0.3,0.2,0.5
			c0.1,0.1,0.3,0.2,0.5,0.2h4.4c0.2,0,0.4-0.1,0.5-0.2c0.1-0.1,0.2-0.3,0.2-0.5v-0.5h3.2v1.2c0,0.8-0.3,1.5-0.9,2s-1.2,0.8-2,0.8
			h-6.4c-0.8,0-1.5-0.3-2-0.8c-0.6-0.6-0.9-1.2-0.9-2v-5.3c0-0.8,0.3-1.5,0.9-2S139.7,51.8,140.5,51.8z"/>
		<path class="st1" d="M151,51.8h12.2v2.8h-4.5v8.3h-3.2v-8.3H151V51.8z"/>
		<path class="st1" d="M164.4,51.8h3.2v11h-3.2V51.8z"/>
		<path class="st1" d="M171.8,51.8h6.4c0.8,0,1.5,0.3,2,0.8c0.6,0.6,0.9,1.2,0.9,2v5.3c0,0.8-0.3,1.5-0.9,2s-1.2,0.8-2,0.8h-6.4
			c-0.8,0-1.5-0.3-2-0.8c-0.6-0.6-0.9-1.2-0.9-2v-5.3c0-0.8,0.3-1.5,0.9-2S171,51.8,171.8,51.8z M172.8,54.6c-0.2,0-0.4,0.1-0.5,0.2
			c-0.1,0.1-0.2,0.3-0.2,0.5v3.9c0,0.2,0.1,0.3,0.2,0.5c0.1,0.1,0.3,0.2,0.5,0.2h4.4c0.2,0,0.4-0.1,0.5-0.2c0.1-0.1,0.2-0.3,0.2-0.5
			v-3.9c0-0.2-0.1-0.3-0.2-0.5c-0.1-0.1-0.3-0.2-0.5-0.2C177.2,54.6,172.8,54.6,172.8,54.6z"/>
		<path class="st1" d="M182.4,51.8h3.6l5.4,6.9v-6.9h3.2v11h-3.6l-5.4-6.9v6.9h-3.2V51.8z"/>
	</g>
</g>
</svg>
