<?xml version="1.0" encoding="utf-8"?>
<!-- Generator: Adobe Illustrator 26.3.1, SVG Export Plug-In . SVG Version: 6.00 Build 0)  -->
<svg version="1.1" id="Layer_1" xmlns="http://www.w3.org/2000/svg" xmlns:xlink="http://www.w3.org/1999/xlink" x="0px" y="0px"
	 viewBox="0 0 194.62 42.31" style="enable-background:new 0 0 194.62 42.31;" xml:space="preserve">
<style type="text/css">
	.st0{fill:#00FF4E;}
	.st1{fill:#FFFFFF;}
</style>
<g>
	<g>
		<rect x="33.85" y="33.85" class="st0" width="8.46" height="8.46"/>
		<polygon class="st1" points="0,0 0,8.46 33.85,8.46 33.85,16.93 0,16.93 0,42.31 8.46,42.31 8.46,25.38 25.38,25.38 25.39,33.86 
			33.85,33.86 33.85,25.38 42.31,25.38 42.31,0 		"/>
		<g>
			<rect x="152.31" y="0" class="st1" width="42.31" height="8.46"/>
			<polygon class="st1" points="152.31,16.93 152.31,42.31 194.62,42.31 194.62,33.86 160.77,33.86 160.77,25.39 160.77,25.38 
				194.62,25.38 194.62,16.93 			"/>
		</g>
		<g>
			<polygon class="st1" points="101.54,0 101.54,8.46 135.39,8.46 135.39,16.93 101.54,16.93 101.54,42.31 110,42.31 110,25.38 
				126.93,25.38 126.93,33.86 135.39,33.86 135.39,25.38 143.85,25.38 143.85,0 			"/>
			<rect x="135.39" y="33.86" class="st1" width="8.46" height="8.46"/>
		</g>
		<path class="st1" d="M50.77,0v42.31h8.46V25.39v-0.01h25.39v0.01v16.92h8.46V0H50.77z M84.62,16.93h-8.46h-8.47h-8.46V8.47h8.46
			h8.46h0.01h8.46V16.93z"/>
	</g>
</g>
</svg>
